<svg width="51" height="46" viewBox="0 0 51 46" fill="none" xmlns="http://www.w3.org/2000/svg">
<path d="M29.4315 38.069V11.2387L35.5393 11.2387V34.3936L29.4315 38.069Z" fill="#004E98"/>
<path d="M0 38.4293L5.74064e-05 11.2387H5.02816L13.9739 26.9841H11.321L20.0199 11.2387H24.8492V38.4293L19.4955 34.3937L19.4338 20.4015H20.3901L13.8813 32.1112H11.1668L4.47291 20.4015H5.6451V34.3937L0 38.4293Z" fill="#004E98"/>
<path d="M27.1852 1.58215e-06C30.618 1.90396e-06 33.7933 0.556803 36.7112 1.6704C39.5861 2.82682 42.0963 4.43296 44.2418 6.48883C46.3443 8.58753 47.9963 11.0289 49.1978 13.8129C50.3993 16.5968 51 19.6592 51 23C51 26.3408 50.3993 29.4032 49.1978 32.1872C47.9963 34.9711 46.3229 37.3911 44.1774 39.4469C42.0319 41.5456 39.5217 43.1518 36.6468 44.2654C33.7289 45.4218 30.5536 46 27.1209 46C23.6452 46 20.4485 45.4004 17.5306 44.2011C14.5699 43.0447 12.0597 41.3101 10 38.9972L14.4305 38.933C16.4073 38.9972 16.4073 38.9972 19.9765 38.933C22.1219 39.8324 24.4176 40.2821 26.8634 40.2821C29.3951 40.2821 31.7551 39.8538 33.9435 38.9972C36.089 38.1406 37.9555 36.9413 39.5432 35.3994C41.1308 33.8575 42.3752 32.0158 43.2763 29.8743C44.1345 27.7756 44.5636 25.4842 44.5636 23C44.5636 20.5158 44.1345 18.203 43.2763 16.0615C42.3752 13.9628 41.1308 12.1425 39.5432 10.6006C37.9555 9.05866 36.089 7.85941 33.9435 7.0028C31.7551 6.14619 29.3951 5.71788 26.8634 5.71788C24.4176 5.71788 22.1219 6.14619 19.9765 7.0028C17.5306 7.0028 17.5306 7.0028 14.4305 7.06704L10 7.06704C12.0597 4.75419 14.5699 2.99814 17.5306 1.79888C20.4485 0.599626 23.6667 1.2523e-06 27.1852 1.58215e-06Z" fill="#004E98"/>
</svg>
